<svg xmlns="http://www.w3.org/2000/svg" viewBox="0 0 512 512" role="img" aria-label="Coloring Books Prompts icon">
  <defs>
    <linearGradient id="bg" x1="0" y1="0" x2="1" y2="1">
      <stop offset="0%" stop-color="#7c3aed"/>
      <stop offset="55%" stop-color="#06b6d4"/>
      <stop offset="100%" stop-color="#f59e0b"/>
    </linearGradient>
    <filter id="shadow" x="-20%" y="-20%" width="140%" height="140%">
      <feDropShadow dx="0" dy="8" stdDeviation="10" flood-color="#1f2937" flood-opacity="0.25"/>
    </filter>
  </defs>

  <rect x="28" y="28" width="456" height="456" rx="112" fill="url(#bg)"/>

  <g filter="url(#shadow)">
    <rect x="112" y="122" width="288" height="278" rx="26" fill="#ffffff"/>
    <rect x="130" y="140" width="252" height="242" rx="18" fill="#f8fafc"/>

    <path d="M170 200c20-28 54-42 88-42 44 0 83 27 99 67 16 41 8 86-20 118-18 20-44 33-71 36-20 2-41-2-59-12-11-6-20-13-29-22l23-22c7 7 14 12 23 16 12 6 25 9 39 8 18-2 35-10 47-24 19-21 24-51 13-79-11-27-37-45-66-45-24 0-48 11-61 31l-26-30z" fill="#0f172a" opacity="0.92"/>

    <path d="M324 126l58 58-86 86c-8 8-18 13-28 15l-43 10 10-43c2-10 7-20 15-28l74-74z" fill="#f59e0b"/>
    <path d="M371 173l-39-39 16-16c7-7 18-7 25 0l14 14c7 7 7 18 0 25l-16 16z" fill="#f97316"/>
    <path d="M230 291l-11 44 44-11 91-91-33-33-91 91z" fill="#fb923c"/>
  </g>
</svg>
